<svg xmlns="http://www.w3.org/2000/svg" width="1200" height="675" aria-labelledby="title desc" viewBox="0 0 1200 675"><title id="title">The Complete Guide to GIF Making</title><desc id="desc">Hero artwork for the Comprehensive GIF Making Guide on EasyGIFMaker with a blue to purple gradient and subtle pattern.</desc><defs><linearGradient id="g" x1="0" x2="1" y1="0" y2="1"><stop offset="0%" stop-color="#3b82f6"/><stop offset="100%" stop-color="#8b5cf6"/></linearGradient><pattern id="p" width="40" height="40" patternUnits="userSpaceOnUse"><circle cx="1" cy="1" r="1" fill="rgba(255,255,255,0.25)"/></pattern></defs><path fill="url(#g)" d="M0 0H1200V675H0z"/><path fill="url(#p)" d="M0 0H1200V675H0z"/><g transform="translate(80 160)"><rect width="560" height="315" fill="rgba(255,255,255,0.12)" stroke="rgba(255,255,255,0.35)" rx="16"/><rect width="240" height="135" x="24" y="24" fill="rgba(255,255,255,0.2)" rx="10"/><rect width="248" height="30" x="288" y="24" fill="rgba(255,255,255,0.25)" rx="6"/><rect width="210" height="18" x="288" y="72" fill="rgba(255,255,255,0.2)" rx="5"/><rect width="190" height="18" x="288" y="102" fill="rgba(255,255,255,0.2)" rx="5"/><rect width="160" height="18" x="288" y="132" fill="rgba(255,255,255,0.2)" rx="5"/></g><g fill="#fff" font-family="ui-sans-serif, system-ui, -apple-system, Segoe UI, Roboto, Ubuntu, Cantarell, Noto Sans, Helvetica Neue, Arial"><text font-size="56" font-weight="800" transform="translate(700 120)">
      The Complete Guide
    </text><text y="68" font-size="56" font-weight="800" transform="translate(700 120)">
      to GIF Making
    </text><text y="128" font-size="22" opacity="0.9" transform="translate(700 120)">
      Professional techniques, tools, and optimization strategies
    </text></g><g fill="#fff" opacity="0.95" transform="translate(700 260)"><rect width="360" height="12" rx="6"/><rect width="300" height="12" y="24" opacity="0.9" rx="6"/><rect width="280" height="12" y="48" opacity="0.8" rx="6"/></g><text x="80" y="620" fill="rgba(255,255,255,0.9)" font-family="ui-sans-serif, system-ui, -apple-system, Segoe UI, Roboto, Ubuntu, Cantarell, Noto Sans, Helvetica Neue, Arial" font-size="18">
    EasyGIFMaker • easygifmaker.com
  </text></svg>