<svg xmlns="http://www.w3.org/2000/svg" width="1200" height="675" aria-label="How to Make GIFs from Videos - EasyGIFMaker" viewBox="0 0 1200 675"><defs><linearGradient id="g" x1="0" x2="1" y1="0" y2="1"><stop offset="0" stop-color="#e8f1ff"/><stop offset="1" stop-color="#f4f7ff"/></linearGradient></defs><path fill="url(#g)" d="M0 0H1200V675H0z"/><g transform="translate(80 80)"><rect width="1040" height="515" fill="#fff" stroke="#cfe0ff" rx="24"/><rect width="992" height="467" x="24" y="24" fill="#f0f6ff" stroke="#d7e6ff" rx="16"/><g transform="translate(60 80)"><rect width="360" height="240" fill="#dbeafe" rx="12"/><path fill="#1d4ed8" d="M150 60 270 120 150 180z" opacity="0.9"/><rect width="500" height="24" x="420" y="8" fill="#dbeafe" rx="12"/><rect width="460" height="18" x="420" y="52" fill="#e5edff" rx="9"/><rect width="480" height="18" x="420" y="84" fill="#e5edff" rx="9"/><rect width="350" height="18" x="420" y="116" fill="#e5edff" rx="9"/><rect width="300" height="36" x="420" y="168" fill="#1d4ed8" rx="18"/></g></g><g transform="translate(80 625)"><rect width="400" height="40" y="-40" fill="#1d4ed8" rx="20"/><text x="200" y="-14" fill="#fff" font-family="Inter, ui-sans-serif" font-size="22" font-weight="700" text-anchor="middle">How to Make GIFs from Videos</text></g></svg>